<svg width="70" height="70" viewBox="0 0 70 70" fill="none" xmlns="http://www.w3.org/2000/svg">
<circle cx="35" cy="35" r="35" fill="white"/>
<path d="M33.1553 15.4695C33.1553 14.5309 33.9162 13.77 34.8548 13.77V13.77C35.7934 13.77 36.5543 14.5309 36.5543 15.4695V40.4395H33.1553V15.4695Z" fill="black"/>
<path d="M20.082 39.0018C20.082 37.9187 20.96 37.0408 22.043 37.0408H47.4051C48.4882 37.0408 49.3661 37.9187 49.3661 39.0018V39.0018C49.3661 40.0848 48.4882 40.9627 47.4051 40.9627H22.043C20.96 40.9627 20.082 40.0848 20.082 39.0018V39.0018Z" fill="black"/>
<path d="M25.0498 46.0613C25.0498 44.9783 25.9278 44.1003 27.0108 44.1003H42.6987C43.7817 44.1003 44.6597 44.9783 44.6597 46.0613V46.0613C44.6597 47.1444 43.7817 48.0223 42.6987 48.0223H27.0108C25.9278 48.0223 25.0498 47.1444 25.0498 46.0613V46.0613Z" fill="black"/>
<path d="M29.4951 53.1209C29.4951 52.0379 30.3731 51.1599 31.4561 51.1599H38.2542C39.3372 51.1599 40.2152 52.0379 40.2152 53.1209V53.1209C40.2152 54.2039 39.3372 55.0819 38.2542 55.0819H31.4561C30.3731 55.0819 29.4951 54.2039 29.4951 53.1209V53.1209Z" fill="black"/>
</svg>
