<svg width="545" height="76" viewBox="0 0 545 76" fill="none" xmlns="http://www.w3.org/2000/svg">
<rect x="233" width="9" height="7" fill="#D9D9D9"/>
<rect x="296" width="9" height="7" fill="#D9D9D9"/>
<rect x="313" width="9" height="7" fill="#D9D9D9"/>
<rect x="117" width="9" height="7" fill="#D9D9D9"/>
<rect width="30" height="7" fill="#D9D9D9"/>
<rect x="190" width="31" height="7" fill="#D9D9D9"/>
<rect x="35" width="30" height="7" fill="#D9D9D9"/>
<rect x="330" width="30" height="7" fill="#D9D9D9"/>
<path d="M18.946 32.2727H23.6761L34.7983 59.4389H35.1818L46.3039 32.2727H51.034V65H47.3267V40.1349H47.0071L36.7798 65H33.2002L22.973 40.1349H22.6534V65H18.946V32.2727Z" fill="white"/>
<path d="M116.516 65V32.2727H136.267V35.7884H120.479V46.8466H135.244V50.3622H120.479V61.4844H136.523V65H116.516Z" fill="white"/>
<path d="M233.974 32.2727V65H230.139L212.305 39.304H211.985V65H208.022V32.2727H211.857L229.755 58.0327H230.075V32.2727H233.974Z" fill="white"/>
<path d="M336.763 32.2727H340.726V53.9418C340.726 56.179 340.199 58.1765 339.144 59.9343C338.1 61.6815 336.625 63.0611 334.718 64.0732C332.811 65.0746 330.573 65.5753 328.006 65.5753C325.439 65.5753 323.201 65.0746 321.294 64.0732C319.387 63.0611 317.907 61.6815 316.852 59.9343C315.808 58.1765 315.286 56.179 315.286 53.9418V32.2727H319.249V53.6222C319.249 55.2202 319.6 56.6424 320.304 57.8888C321.007 59.1246 322.008 60.0994 323.308 60.8132C324.618 61.5163 326.184 61.8679 328.006 61.8679C329.828 61.8679 331.394 61.5163 332.704 60.8132C334.015 60.0994 335.016 59.1246 335.708 57.8888C336.412 56.6424 336.763 55.2202 336.763 53.6222V32.2727Z" fill="white"/>
<rect x="473" y="11.3137" width="13.0444" height="88" transform="rotate(-45 473 11.3137)" fill="#D9D9D9"/>
<rect x="506.941" y="29" width="10.55" height="48" transform="rotate(45 506.941 29)" fill="#D9D9D9"/>
<rect x="535.678" width="10.5462" height="25" transform="rotate(45 535.678 0)" fill="#D9D9D9"/>
</svg>
